<?xml version="1.0" encoding="UTF-8" standalone="no" ?>
<!DOCTYPE svg PUBLIC "-//W3C//DTD SVG 1.1//EN" "http://www.w3.org/Graphics/SVG/1.1/DTD/svg11.dtd">
<svg xmlns="http://www.w3.org/2000/svg" xmlns:xlink="http://www.w3.org/1999/xlink" version="1.1" width="1280" height="1024" viewBox="0 0 1280 1024" xml:space="preserve">
<desc>Created with Fabric.js 3.6.3</desc>
<defs>
</defs>
<g transform="matrix(1.9692780337941629 0 0 1.9692780337941629 640.0153846153846 512.012312418764)" id="background-logo"  >
<rect style="stroke: none; stroke-width: 1; stroke-dasharray: none; stroke-linecap: butt; stroke-dashoffset: 0; stroke-linejoin: miter; stroke-miterlimit: 10; fill: rgb(255,255,255); fill-rule: nonzero; opacity: 1;"  paint-order="stroke"  x="-325" y="-260" rx="0" ry="0" width="650" height="520" />
</g>
<g transform="matrix(1.9692780337941629 0 0 1.9692780337941629 636.0850018208857 783.3493186996147)" id="text-logo-path"  >
<linearGradient id="SVGID_18_582376" gradientUnits="userSpaceOnUse" gradientTransform="matrix(1 0 0 1 1.2199999999999989 -82.18)"  x1="0" y1="0" x2="0" y2="123">
<stop offset="0%" style="stop-color:rgb(23,234,217);stop-opacity: 1"/>
<stop offset="100%" style="stop-color:rgb(96,120,234);stop-opacity: 1"/>
</linearGradient>
<path style="stroke: rgb(255,255,255); stroke-width: 0; stroke-dasharray: none; stroke-linecap: butt; stroke-dashoffset: 0; stroke-linejoin: miter; stroke-miterlimit: 10; fill: url(#SVGID_18_582376); fill-rule: nonzero; opacity: 1;"  paint-order="stroke"  transform=" translate(-204.74499999999998, 40.56)" d="M 1.22 -13.41 L 1.22 -13.41 Q 1.22 -23.21 10.03 -28.77 Q 18.84 -34.33 36.08 -34.75 L 36.08 -34.75 Q 36.19 -35.98 36.24 -36.8 Q 36.3 -37.63 36.3 -38.8 L 36.3 -38.8 Q 36.3 -42.31 34.99 -44.36 Q 33.69 -46.41 29.54 -46.41 L 29.54 -46.41 Q 27.25 -46.41 25.84 -45.77 Q 24.43 -45.13 23.55 -43.99 Q 22.67 -42.84 22.14 -41.19 Q 21.61 -39.54 21.13 -37.63 L 21.13 -37.63 Q 20.92 -36.67 20.17 -36.38 Q 19.43 -36.08 17.78 -36.08 L 17.78 -36.08 Q 6.65 -36.08 6.65 -44.49 L 6.65 -44.49 Q 6.65 -47.85 8.22 -50.91 Q 9.79 -53.97 12.91 -56.2 Q 16.02 -58.44 20.7 -59.74 Q 25.39 -61.05 31.61 -61.05 L 31.61 -61.05 Q 43.7 -61.05 49.15 -56.02 Q 54.61 -50.99 54.61 -41.83 L 54.61 -41.83 Q 54.61 -40.61 54.34 -37.52 Q 54.07 -34.44 53.68 -31 Q 53.28 -27.57 53.01 -24.51 Q 52.74 -21.45 52.74 -20.28 L 52.74 -20.28 Q 52.74 -17.56 53.73 -16.42 Q 54.71 -15.27 55.96 -14.82 Q 57.21 -14.37 58.2 -14.16 Q 59.18 -13.94 59.18 -13.09 L 59.18 -13.09 Q 59.18 -10.7 58.52 -8.17 Q 57.85 -5.64 56.39 -3.59 Q 54.93 -1.54 52.37 -0.24 Q 49.82 1.06 46.09 1.06 L 46.09 1.06 Q 40.88 1.06 38.27 -1.44 Q 35.66 -3.94 34.75 -8.41 L 34.75 -8.41 Q 32.15 -4.58 27.94 -1.76 Q 23.74 1.06 16.98 1.06 L 16.98 1.06 Q 13.73 1.06 10.86 0.32 Q 7.98 -0.43 5.85 -2.18 Q 3.73 -3.94 2.47 -6.71 Q 1.22 -9.47 1.22 -13.41 Z M 19.96 -17.88 L 19.96 -17.88 Q 19.96 -15.38 21.53 -14.4 Q 23.1 -13.41 24.96 -13.41 L 24.96 -13.41 Q 26.72 -13.41 28.45 -14.18 Q 30.18 -14.96 31.53 -16.53 Q 32.89 -18.1 33.88 -20.38 Q 34.86 -22.67 35.07 -25.81 L 35.07 -25.81 Q 32.25 -25.81 29.54 -25.39 Q 26.82 -24.96 24.7 -24.03 Q 22.57 -23.1 21.26 -21.58 Q 19.96 -20.06 19.96 -17.88 Z M 65.84 -14.48 L 65.84 -14.48 Q 65.84 -15.81 66 -17.78 Q 66.16 -19.75 66.42 -22.83 Q 66.69 -25.92 67.14 -30.5 Q 67.59 -35.07 68.07 -41.62 Q 68.55 -48.17 69.16 -57 Q 69.77 -65.84 70.41 -77.49 L 70.41 -77.49 Q 70.52 -79.89 70.95 -80.31 L 70.95 -80.31 Q 71.27 -80.63 72.7 -80.69 L 72.7 -80.69 L 76.96 -80.69 Q 80.21 -80.69 82.39 -79.91 Q 84.57 -79.14 85.87 -77.84 Q 87.18 -76.53 87.74 -74.83 Q 88.3 -73.13 88.3 -71.27 L 88.3 -71.27 Q 88.3 -69.08 88.03 -65.01 Q 87.76 -60.94 87.31 -55.8 Q 86.86 -50.67 86.43 -45.11 Q 86.01 -39.54 85.56 -34.49 Q 85.1 -29.43 84.84 -25.39 Q 84.57 -21.34 84.57 -19.27 L 84.57 -19.27 Q 84.57 -16.45 85.61 -15.25 Q 86.65 -14.05 87.84 -13.57 Q 89.04 -13.09 90.08 -12.93 Q 91.12 -12.77 91.12 -12.19 L 91.12 -12.19 Q 91.12 -9.79 90.58 -7.45 Q 90.05 -5.11 88.62 -3.22 Q 87.18 -1.33 84.76 -0.19 Q 82.34 0.96 78.5 0.96 L 78.5 0.96 Q 71.74 0.96 68.79 -2.63 Q 65.84 -6.23 65.84 -14.48 Z M 97.08 -46.78 L 97.08 -46.78 L 97.4 -52.32 Q 97.5 -53.75 97.8 -55.11 Q 98.09 -56.47 98.89 -57.56 Q 99.69 -58.65 101.23 -59.29 Q 102.77 -59.93 105.27 -59.93 L 105.27 -59.93 Q 106.02 -61.9 107 -64.64 Q 107.99 -67.38 108.97 -69.93 Q 109.96 -72.49 110.89 -74.22 Q 111.82 -75.95 112.57 -75.95 L 112.57 -75.95 L 115.71 -75.95 Q 120.28 -75.95 122.04 -73.13 Q 123.8 -70.31 123.8 -66.37 L 123.8 -66.37 Q 123.8 -64.19 123.48 -59.93 L 123.48 -59.93 L 134.92 -59.93 Q 136.68 -59.93 136.68 -58.44 L 136.68 -58.44 L 136.2 -52.53 Q 135.98 -49.28 134.41 -47.26 Q 132.84 -45.24 127.95 -45.24 L 127.95 -45.24 L 122.15 -45.24 Q 121.83 -41.09 121.45 -37.07 Q 121.08 -33.05 120.76 -29.43 Q 120.44 -25.81 120.26 -22.99 Q 120.07 -20.17 120.07 -18.63 L 120.07 -18.63 Q 120.07 -15.81 120.74 -14.88 Q 121.4 -13.94 122.94 -13.94 L 122.94 -13.94 Q 124.17 -13.94 125.02 -14.4 Q 125.87 -14.85 126.64 -15.38 Q 127.42 -15.91 128 -16.34 Q 128.59 -16.77 129.33 -16.77 L 129.33 -16.77 Q 130.08 -16.77 130.74 -15.91 Q 131.41 -15.06 131.41 -11.87 L 131.41 -11.87 Q 131.41 -5.85 128.13 -2.4 Q 124.86 1.06 116.93 1.06 L 116.93 1.06 Q 109.11 1.06 105.33 -2.58 Q 101.55 -6.23 101.55 -13.73 L 101.55 -13.73 Q 101.55 -15.38 101.71 -17.62 Q 101.87 -19.85 102.21 -23.44 Q 102.56 -27.04 103.04 -32.28 Q 103.52 -37.52 104.05 -45.24 L 104.05 -45.24 L 98.3 -45.24 Q 97.45 -45.24 97.26 -45.61 Q 97.08 -45.98 97.08 -46.78 Z M 140.03 -24.43 L 140.03 -24.43 Q 140.03 -27.14 140.48 -30.95 Q 140.93 -34.75 142.18 -38.8 Q 143.44 -42.84 145.67 -46.81 Q 147.91 -50.77 151.5 -53.94 Q 155.09 -57.11 160.2 -59.08 Q 165.31 -61.05 172.44 -61.05 L 172.44 -61.05 Q 178.08 -61.05 182.02 -59.74 Q 185.96 -58.44 188.35 -56.2 Q 190.75 -53.97 191.84 -51.01 Q 192.93 -48.06 192.93 -44.71 L 192.93 -44.71 Q 192.93 -39.7 190.91 -36.19 Q 188.89 -32.68 185.67 -30.34 Q 182.45 -28 178.54 -26.69 Q 174.62 -25.39 170.79 -24.7 Q 166.96 -24 163.74 -23.82 Q 160.52 -23.63 158.82 -23.63 L 158.82 -23.63 Q 158.82 -21.56 159.4 -19.56 Q 159.99 -17.56 161.18 -16.02 Q 162.38 -14.48 164.35 -13.52 Q 166.32 -12.56 169.14 -12.56 L 169.14 -12.56 Q 171.96 -12.56 173.56 -13.47 Q 175.16 -14.37 176.14 -15.51 Q 177.13 -16.66 177.82 -17.59 Q 178.51 -18.52 179.73 -18.52 L 179.73 -18.52 Q 180.27 -18.52 181.62 -18.26 Q 182.98 -17.99 184.42 -17.11 Q 185.85 -16.23 186.92 -14.72 Q 187.98 -13.2 187.98 -10.8 L 187.98 -10.8 Q 187.98 -7.66 186.04 -5.35 Q 184.1 -3.03 180.98 -1.62 Q 177.87 -0.21 174.06 0.43 Q 170.26 1.06 166.64 1.06 L 166.64 1.06 Q 161.85 1.06 157.11 -0.13 Q 152.38 -1.33 148.6 -4.26 Q 144.82 -7.19 142.42 -12.08 Q 140.03 -16.98 140.03 -24.43 Z M 159.14 -32.36 L 159.14 -32.36 Q 165.9 -32.47 170.07 -34.65 Q 174.25 -36.83 174.25 -40.88 L 174.25 -40.88 Q 174.25 -43.06 172.89 -44.79 Q 171.54 -46.52 168.72 -46.52 L 168.72 -46.52 Q 166.32 -46.52 164.62 -45.16 Q 162.91 -43.8 161.77 -41.73 Q 160.63 -39.65 160.04 -37.15 Q 159.46 -34.65 159.14 -32.36 Z M 198.09 -26.19 L 198.09 -26.19 Q 198.09 -29.01 198.49 -32.65 Q 198.89 -36.3 200.09 -40.16 Q 201.29 -44.02 203.31 -47.79 Q 205.33 -51.57 208.71 -54.5 Q 212.09 -57.43 216.83 -59.24 Q 221.57 -61.05 228.11 -61.05 L 228.11 -61.05 Q 233.43 -61.05 237.29 -59.8 Q 241.15 -58.54 243.68 -56.42 Q 246.21 -54.29 247.46 -51.44 Q 248.71 -48.59 248.71 -45.35 L 248.71 -45.35 Q 248.71 -39.44 244.98 -36.67 Q 241.26 -33.9 234.5 -33.9 L 234.5 -33.9 Q 232.85 -33.9 232.26 -34.17 Q 231.68 -34.44 231.68 -35.45 L 231.68 -35.45 Q 231.68 -38.05 231.57 -40.13 Q 231.47 -42.21 230.99 -43.62 Q 230.51 -45.03 229.52 -45.77 Q 228.54 -46.52 226.68 -46.52 L 226.68 -46.52 Q 223.32 -46.52 221.3 -44.36 Q 219.28 -42.21 218.24 -39.09 Q 217.2 -35.98 216.94 -32.71 Q 216.67 -29.43 216.67 -27.25 L 216.67 -27.25 Q 216.67 -19.53 219.12 -16.47 Q 221.57 -13.41 226.89 -13.41 L 226.89 -13.41 Q 230.03 -13.41 232.4 -14.29 Q 234.77 -15.17 236.49 -16.26 Q 238.22 -17.35 239.42 -18.2 Q 240.62 -19.05 241.63 -19.05 L 241.63 -19.05 Q 244.13 -19.05 244.13 -15.81 L 244.13 -15.81 Q 244.13 -15.06 243.79 -13.68 Q 243.44 -12.29 242.91 -10.83 Q 242.38 -9.37 241.76 -8.06 Q 241.15 -6.76 240.62 -6.12 L 240.62 -6.12 Q 240.09 -5.59 238.73 -4.36 Q 237.37 -3.14 235.08 -1.94 Q 232.8 -0.75 229.74 0.16 Q 226.68 1.06 222.95 1.06 L 222.95 1.06 Q 218.8 1.06 214.41 -0.19 Q 210.02 -1.44 206.4 -4.52 Q 202.78 -7.61 200.44 -12.91 Q 198.09 -18.2 198.09 -26.19 Z M 253.45 -26.19 L 253.45 -26.19 Q 253.45 -32.73 255.04 -38.99 Q 256.64 -45.24 260.45 -50.14 Q 264.25 -55.03 270.53 -58.04 Q 276.81 -61.05 286.18 -61.05 L 286.18 -61.05 Q 299.91 -61.05 305.84 -54.34 Q 311.78 -47.63 311.78 -35.55 L 311.78 -35.55 Q 311.78 -32.2 311.3 -28.1 Q 310.82 -24 309.44 -19.96 Q 308.05 -15.91 305.71 -12.11 Q 303.37 -8.3 299.78 -5.35 Q 296.18 -2.4 291.13 -0.67 Q 286.07 1.06 279.21 1.06 L 279.21 1.06 Q 271.7 1.06 266.73 -1.04 Q 261.75 -3.14 258.8 -6.87 Q 255.84 -10.59 254.64 -15.54 Q 253.45 -20.49 253.45 -26.19 Z M 272.02 -27.36 L 272.02 -27.36 Q 272.02 -20.17 274.31 -16.79 Q 276.6 -13.41 280.8 -13.41 L 280.8 -13.41 Q 284.63 -13.41 287.08 -15.81 Q 289.53 -18.2 290.89 -21.58 Q 292.25 -24.96 292.75 -28.66 Q 293.26 -32.36 293.26 -34.86 L 293.26 -34.86 Q 293.26 -40.29 291.23 -43.4 Q 289.21 -46.52 284.32 -46.52 L 284.32 -46.52 Q 280.16 -46.52 277.72 -44.41 Q 275.27 -42.31 274.02 -39.3 Q 272.77 -36.3 272.39 -32.97 Q 272.02 -29.65 272.02 -27.36 Z M 320.03 -10.38 L 320.03 -10.38 Q 320.03 -12.03 320.19 -15.01 Q 320.35 -17.99 320.8 -23.28 Q 321.25 -28.58 321.84 -36.7 Q 322.42 -44.81 323.27 -56.79 L 323.27 -56.79 Q 323.38 -59.18 323.86 -59.61 L 323.86 -59.61 Q 324.18 -59.93 325.56 -59.93 L 325.56 -59.93 L 329.82 -59.93 Q 333.17 -59.93 335.33 -59.29 Q 337.48 -58.65 338.74 -57.35 Q 339.99 -56.04 340.47 -54.18 Q 340.94 -52.32 340.94 -50.03 L 340.94 -50.03 Q 340.94 -48.38 340.73 -45.11 Q 340.52 -41.83 340.15 -36.22 Q 339.77 -30.6 339.11 -22.27 Q 338.44 -13.94 337.48 -2.18 L 337.48 -2.18 Q 337.38 -0.85 336.93 -0.43 Q 336.47 0 335.09 0 L 335.09 0 L 331.15 0 Q 327.8 0 325.67 -0.72 Q 323.54 -1.44 322.26 -2.74 Q 320.99 -4.04 320.51 -5.93 Q 320.03 -7.82 320.03 -10.38 Z M 323.43 -72.81 L 323.43 -72.81 Q 323.43 -77.17 326.57 -79.67 Q 329.71 -82.18 335.09 -82.18 L 335.09 -82.18 Q 339.77 -82.18 341.9 -80.29 Q 344.03 -78.4 344.03 -75.2 L 344.03 -75.2 Q 344.03 -71.16 341.02 -68.5 Q 338.02 -65.84 332.22 -65.84 L 332.22 -65.84 Q 323.43 -65.84 323.43 -72.81 Z M 350.52 -10.38 L 350.52 -10.38 Q 350.52 -12.03 350.68 -15.01 Q 350.84 -17.99 351.27 -23.28 Q 351.7 -28.58 352.31 -36.7 Q 352.92 -44.81 353.77 -56.79 L 353.77 -56.79 Q 353.88 -59.18 354.36 -59.61 L 354.36 -59.61 Q 354.68 -59.93 356.06 -59.93 L 356.06 -59.93 L 360.32 -59.93 Q 363.56 -59.93 365.72 -59.18 Q 367.88 -58.44 369.18 -57.19 Q 370.48 -55.94 371.02 -54.23 Q 371.55 -52.53 371.65 -50.77 L 371.65 -50.77 Q 375.01 -56.58 379.4 -58.81 Q 383.79 -61.05 390.28 -61.05 L 390.28 -61.05 Q 394.86 -61.05 398.24 -60.06 Q 401.62 -59.08 403.85 -56.74 Q 406.09 -54.39 407.18 -50.64 Q 408.27 -46.89 408.27 -41.3 L 408.27 -41.3 Q 408.27 -39.54 408.06 -36.3 Q 407.85 -33.05 407.53 -29.17 Q 407.21 -25.28 406.83 -21.08 Q 406.46 -16.87 406.12 -13.28 Q 405.77 -9.69 405.56 -6.97 Q 405.34 -4.26 405.34 -3.35 L 405.34 -3.35 Q 405.34 -0.96 404.81 -0.48 Q 404.28 0 402.42 0 L 402.42 0 L 398.9 0 Q 395.39 0 393.24 -0.67 Q 391.08 -1.33 389.88 -2.53 Q 388.69 -3.73 388.18 -5.51 Q 387.67 -7.29 387.67 -9.58 L 387.67 -9.58 Q 387.67 -11.98 388.07 -15.86 Q 388.47 -19.75 388.84 -24.03 Q 389.22 -28.31 389.59 -32.36 Q 389.96 -36.4 389.96 -39.12 L 389.96 -39.12 Q 389.96 -41.94 388.61 -44.17 Q 387.25 -46.41 383.31 -46.41 L 383.31 -46.41 Q 379.48 -46.41 377 -44.57 Q 374.53 -42.74 372.82 -37.81 Q 371.12 -32.89 370.03 -24.3 Q 368.94 -15.7 367.98 -2.18 L 367.98 -2.18 Q 367.88 -0.85 367.42 -0.43 Q 366.97 0 365.59 0 L 365.59 0 L 361.65 0 Q 358.29 0 356.17 -0.72 Q 354.04 -1.44 352.76 -2.74 Q 351.48 -4.04 351 -5.93 Q 350.52 -7.82 350.52 -10.38 Z" stroke-linecap="round" />
</g>
<g transform="matrix(2.178900374928759 0 0 2.178900374928759 640.0153846153846 375.2854807919423)" id="logo-logo"  >
<g style=""  paint-order="stroke"   >
		<g transform="matrix(0.205 0 0 -0.205 23.288275000000112 58.411271221368736)"  >
<linearGradient id="SVGID_11_582377" gradientUnits="userSpaceOnUse" gradientTransform="matrix(1308.83 -540.838 -397.947 -963.035 4476.6 5094.51)"  x1="0" y1="4.547473508864641e-13" x2="1" y2="4.547473508864641e-13">
<stop offset="0%" style="stop-color:rgb(0,173,239);stop-opacity: 1"/>
<stop offset="100%" style="stop-color:rgb(46,49,146);stop-opacity: 1"/>
</linearGradient>
<path style="stroke: none; stroke-width: 1; stroke-dasharray: none; stroke-linecap: butt; stroke-dashoffset: 0; stroke-linejoin: miter; stroke-miterlimit: 10; fill: url(#SVGID_11_582377); fill-rule: nonzero; opacity: 1;"  paint-order="stroke"  transform=" translate(-5011.8099999999995, -4356.01142654994)" d="m 5568.5 4386.41 c 0 0 -47.96 78.63 -95.89 157.27 c -23.97 39.3 -47.93 78.63 -65.92 108.12 l -29.92 49.1 c -89.6 -268.83 -395.31 -124.05 -596.91 -213.65 c -179.22 -89.61 -278.06 -279.12 -361.13 -474.66 c 61.3 -10.39 125.91 37.81 125.91 37.81 c 0 0 224.01 190.41 369.62 201.62 c 212.83 11.2 369.65 -313.63 589.47 -193.32 c 20.42 14.93 38.48 32.95 53.47 53.36 c 29.99 40.83 47.69 91.16 47.69 145.54 c 0 45.59 -12.51 90.17 -36.39 128.81" stroke-linecap="round" />
</g>
		<g transform="matrix(0.205 0 0 -0.205 -48.874325 -34.98972877863133)"  >
<linearGradient id="SVGID_12_582378" gradientUnits="userSpaceOnUse" gradientTransform="matrix(859.967 865.378 446.076 -443.286 4112.8 4633.94)"  x1="0" y1="9.094947017729282e-13" x2="1" y2="9.094947017729282e-13">
<stop offset="0%" style="stop-color:rgb(0,173,239);stop-opacity: 1"/>
<stop offset="100%" style="stop-color:rgb(46,49,146);stop-opacity: 1"/>
</linearGradient>
<path style="stroke: none; stroke-width: 1; stroke-dasharray: none; stroke-linecap: butt; stroke-dashoffset: 0; stroke-linejoin: miter; stroke-miterlimit: 10; fill: url(#SVGID_12_582378); fill-rule: nonzero; opacity: 1;"  paint-order="stroke"  transform=" translate(-4659.74, -4811.700000000001)" d="m 5128.01 5108.87 c -1.1 -28.58 -4.48 -56.7 -10.09 -84.14 c -7.52 -37.07 -18.92 -72.77 -33.51 -106.94 c -136.55 -307.34 -506.17 -251.33 -745.69 -406.54 c -22.42 -15.78 -43.52 -33.19 -63.13 -52.14 c -19.6 -18.95 -37.73 -39.4 -54.2 -61.2 c -4.38 -5.69 -8.71 -11.64 -12.88 -17.69 l -0.22 -0.55 l -16.82 -27.11 c 2.58 6.51 5.61 12.89 8.99 19.04 c 0.09 0.11 0.09 0.21 0.22 0.34 l 17.81 28.9 c 0.1 0.23 0.21 0.45 0.33 0.77 c 0 0 38.97 63.36 77.97 126.7 c 19.49 31.68 38.97 63.33 53.58 87.09 l 128.12 208.17 c 19.58 31.84 41.62 67.68 63.64 103.5 c 66.12 107.48 132.24 214.94 132.24 214.94 l 13.99 22.75 c 46.15 66.42 121.76 106.08 202.54 106.08 c 86.23 0 164.76 -43.91 209.9 -117.17 l 27.21 -44.8" stroke-linecap="round" />
</g>
</g>
</g>
</svg>