<?xml version="1.0" encoding="UTF-8" standalone="no" ?>
<!DOCTYPE svg PUBLIC "-//W3C//DTD SVG 1.1//EN" "http://www.w3.org/Graphics/SVG/1.1/DTD/svg11.dtd">
<svg xmlns="http://www.w3.org/2000/svg" xmlns:xlink="http://www.w3.org/1999/xlink" version="1.1" width="1280" height="1024" viewBox="0 0 1280 1024" xml:space="preserve">
<desc>Created with Fabric.js 3.6.3</desc>
<defs>
</defs>
<g transform="matrix(1.9692780337941629 0 0 1.9692780337941629 640.0153846153846 512.012312418764)" id="background-logo"  >
<rect style="stroke: none; stroke-width: 1; stroke-dasharray: none; stroke-linecap: butt; stroke-dashoffset: 0; stroke-linejoin: miter; stroke-miterlimit: 10; fill: rgb(255,255,255); fill-rule: nonzero; opacity: 1;"  paint-order="stroke"  x="-325" y="-260" rx="0" ry="0" width="650" height="520" />
</g>
<g transform="matrix(1.9692780337941629 0 0 1.9692780337941629 640.0153846153846 512.012312418764)" id="logo-logo"  >
<g style=""  paint-order="stroke"   >
		<g transform="matrix(0.205 0 0 -0.205 23.288275000000112 58.411271221368736)"  >
<linearGradient id="SVGID_1_4_441595" gradientUnits="userSpaceOnUse" gradientTransform="matrix(1308.83 -540.838 -397.947 -963.035 4476.6 5094.51)"  x1="0" y1="4.547473508864641e-13" x2="1" y2="4.547473508864641e-13">
<stop offset="0%" style="stop-color:rgb(0,173,239);stop-opacity: 1"/>
<stop offset="100%" style="stop-color:rgb(46,49,146);stop-opacity: 1"/>
</linearGradient>
<path style="stroke: none; stroke-width: 1; stroke-dasharray: none; stroke-linecap: butt; stroke-dashoffset: 0; stroke-linejoin: miter; stroke-miterlimit: 10; fill: url(#SVGID_1_4_441595); fill-rule: nonzero; opacity: 1;"  paint-order="stroke"  transform=" translate(-5011.8099999999995, -4356.01142654994)" d="m 5568.5 4386.41 c 0 0 -47.96 78.63 -95.89 157.27 c -23.97 39.3 -47.93 78.63 -65.92 108.12 l -29.92 49.1 c -89.6 -268.83 -395.31 -124.05 -596.91 -213.65 c -179.22 -89.61 -278.06 -279.12 -361.13 -474.66 c 61.3 -10.39 125.91 37.81 125.91 37.81 c 0 0 224.01 190.41 369.62 201.62 c 212.83 11.2 369.65 -313.63 589.47 -193.32 c 20.42 14.93 38.48 32.95 53.47 53.36 c 29.99 40.83 47.69 91.16 47.69 145.54 c 0 45.59 -12.51 90.17 -36.39 128.81" stroke-linecap="round" />
</g>
		<g transform="matrix(0.205 0 0 -0.205 -48.874325 -34.98972877863133)"  >
<linearGradient id="SVGID_2_5_441596" gradientUnits="userSpaceOnUse" gradientTransform="matrix(859.967 865.378 446.076 -443.286 4112.8 4633.94)"  x1="0" y1="9.094947017729282e-13" x2="1" y2="9.094947017729282e-13">
<stop offset="0%" style="stop-color:rgb(0,173,239);stop-opacity: 1"/>
<stop offset="100%" style="stop-color:rgb(46,49,146);stop-opacity: 1"/>
</linearGradient>
<path style="stroke: none; stroke-width: 1; stroke-dasharray: none; stroke-linecap: butt; stroke-dashoffset: 0; stroke-linejoin: miter; stroke-miterlimit: 10; fill: url(#SVGID_2_5_441596); fill-rule: nonzero; opacity: 1;"  paint-order="stroke"  transform=" translate(-4659.74, -4811.700000000001)" d="m 5128.01 5108.87 c -1.1 -28.58 -4.48 -56.7 -10.09 -84.14 c -7.52 -37.07 -18.92 -72.77 -33.51 -106.94 c -136.55 -307.34 -506.17 -251.33 -745.69 -406.54 c -22.42 -15.78 -43.52 -33.19 -63.13 -52.14 c -19.6 -18.95 -37.73 -39.4 -54.2 -61.2 c -4.38 -5.69 -8.71 -11.64 -12.88 -17.69 l -0.22 -0.55 l -16.82 -27.11 c 2.58 6.51 5.61 12.89 8.99 19.04 c 0.09 0.11 0.09 0.21 0.22 0.34 l 17.81 28.9 c 0.1 0.23 0.21 0.45 0.33 0.77 c 0 0 38.97 63.36 77.97 126.7 c 19.49 31.68 38.97 63.33 53.58 87.09 l 128.12 208.17 c 19.58 31.84 41.62 67.68 63.64 103.5 c 66.12 107.48 132.24 214.94 132.24 214.94 l 13.99 22.75 c 46.15 66.42 121.76 106.08 202.54 106.08 c 86.23 0 164.76 -43.91 209.9 -117.17 l 27.21 -44.8" stroke-linecap="round" />
</g>
</g>
</g>
</svg>